<svg width="25" height="25" viewBox="0 0 25 25" fill="none" xmlns="http://www.w3.org/2000/svg">
<mask id="mask0_2916_5378" style="mask-type:alpha" maskUnits="userSpaceOnUse" x="0" y="0" width="25" height="25">
<rect x="0.336914" y="0.250977" width="24" height="24" fill="#D9D9D9"/>
</mask>
<g mask="url(#mask0_2916_5378)">
<path d="M19.9369 21.251L13.6369 14.951C13.1369 15.351 12.5619 15.6676 11.9119 15.901C11.2619 16.1343 10.5702 16.251 9.83691 16.251C8.02025 16.251 6.48275 15.6218 5.22441 14.3635C3.96608 13.1051 3.33691 11.5676 3.33691 9.75098C3.33691 7.93431 3.96608 6.39681 5.22441 5.13848C6.48275 3.88014 8.02025 3.25098 9.83691 3.25098C11.6536 3.25098 13.1911 3.88014 14.4494 5.13848C15.7077 6.39681 16.3369 7.93431 16.3369 9.75098C16.3369 10.4843 16.2202 11.176 15.9869 11.826C15.7536 12.476 15.4369 13.051 15.0369 13.551L21.3369 19.851L19.9369 21.251ZM9.83691 14.251C11.0869 14.251 12.1494 13.8135 13.0244 12.9385C13.8994 12.0635 14.3369 11.001 14.3369 9.75098C14.3369 8.50098 13.8994 7.43848 13.0244 6.56348C12.1494 5.68848 11.0869 5.25098 9.83691 5.25098C8.58691 5.25098 7.52441 5.68848 6.64941 6.56348C5.77441 7.43848 5.33691 8.50098 5.33691 9.75098C5.33691 11.001 5.77441 12.0635 6.64941 12.9385C7.52441 13.8135 8.58691 14.251 9.83691 14.251ZM8.83691 12.751V10.751H6.83691V8.75098H8.83691V6.75098H10.8369V8.75098H12.8369V10.751H10.8369V12.751H8.83691Z" fill="white"/>
</g>
</svg>
